<svg width="8" height="6" viewBox="0 0 8 6" fill="none" xmlns="http://www.w3.org/2000/svg">
<path d="M4.00169 3.77063L1.00878 0.777846C0.926569 0.695439 0.81665 0.650106 0.699447 0.650106C0.582179 0.650106 0.472325 0.695439 0.389984 0.777846L0.12787 1.04009C0.0453982 1.12237 -1.79986e-07 1.23235 -1.74863e-07 1.34955C-1.6974e-07 1.46676 0.0453982 1.57661 0.12787 1.65895L3.69119 5.22233C3.77379 5.305 3.88416 5.35027 4.0015 5.34994C4.11935 5.35027 4.22959 5.30507 4.31226 5.22233L7.87213 1.66227C7.9546 1.57993 8 1.47007 8 1.35281C8 1.2356 7.9546 1.12575 7.87213 1.04334L7.61002 0.781163C7.43941 0.610561 7.16169 0.610561 6.99115 0.781163L4.00169 3.77063Z" fill="#29ABE2"/>
</svg>
